<?xml version="1.0" encoding="UTF-8" standalone="no"?>
<!DOCTYPE svg PUBLIC "-//W3C//DTD SVG 20010904//EN"
              "http://www.w3.org/TR/2001/REC-SVG-20010904/DTD/svg10.dtd">

<svg xmlns="http://www.w3.org/2000/svg"
     width="7.11111in" height="7.11111in"
     viewBox="0 0 512 512">
  <path id="Selection #1"
        fill="none" stroke="black" stroke-width="1"
        d="M 119.00,375.00
           C 119.00,375.00 134.00,385.58 134.00,385.58
             134.00,385.58 148.00,395.31 148.00,395.31
             153.21,398.62 161.05,402.49 167.00,404.08
             183.37,408.45 204.52,406.08 211.29,388.00
             213.12,383.13 213.94,379.19 214.00,374.00
             214.05,369.17 214.61,363.09 211.49,359.11
             207.94,354.58 201.21,353.84 196.00,351.95
             185.97,348.30 176.24,344.05 167.00,338.72
             139.91,323.10 117.46,298.99 109.90,268.00
             103.84,243.19 108.32,217.82 121.45,196.00
             124.95,190.19 128.04,186.15 132.43,181.00
             135.29,177.64 138.93,174.35 140.18,170.00
             141.54,165.28 139.23,161.33 137.69,157.00
             135.75,151.54 134.27,145.82 134.04,140.00
             133.76,132.94 135.93,123.39 138.90,117.00
             140.07,114.47 141.83,110.83 145.09,110.95
             147.00,111.02 152.13,113.79 154.00,114.78
             161.05,118.50 168.24,123.54 174.00,129.04
             177.67,132.54 181.81,137.89 187.00,138.77
             192.29,139.67 205.86,134.43 212.00,132.89
             224.74,129.71 244.94,126.85 258.00,127.00
             269.50,127.14 288.74,130.08 300.00,132.89
             300.00,132.89 322.00,138.89 322.00,138.89
             329.50,139.26 333.04,133.77 338.00,129.04
             343.42,123.86 350.40,118.89 357.00,115.31
             359.25,114.09 365.44,110.57 367.82,110.99
             370.65,111.48 372.53,115.63 373.54,118.00
             376.24,124.38 378.23,133.06 377.96,140.00
             377.77,144.96 375.95,152.29 374.31,157.00
             372.78,161.38 370.45,165.24 371.82,170.00
             373.08,174.40 376.71,177.59 379.56,181.00
             383.26,185.41 387.61,191.07 390.55,196.00
             404.83,219.95 408.56,246.26 400.56,273.00
             390.76,305.79 362.93,330.26 333.00,344.74
             325.24,348.50 313.33,352.80 305.00,355.28
             299.95,356.78 294.16,357.32 291.01,362.10
             286.91,368.31 290.70,374.05 292.94,380.00
             296.01,388.19 297.99,397.26 298.00,406.00
             298.00,406.00 298.00,496.00 298.00,496.00
             298.00,498.40 297.91,501.73 298.57,504.00
             302.41,517.35 319.06,510.42 328.00,507.86
             352.64,500.79 381.31,485.88 402.00,470.85
             450.98,435.27 485.81,386.23 502.42,328.00
             506.70,313.00 511.82,288.41 512.00,273.00
             512.26,250.84 512.55,233.02 508.58,211.00
             498.45,154.84 469.33,103.40 427.00,65.17
             350.22,-4.18 236.89,-20.02 144.00,25.26
             116.27,38.78 93.72,56.28 72.00,78.00
             54.09,95.92 34.92,122.90 24.31,146.00
             11.55,173.76 0.05,211.29 0.00,242.00
             0.00,242.00 0.00,273.00 0.00,273.00
             0.21,290.98 6.60,319.81 12.33,337.00
             29.01,387.04 57.62,429.50 99.00,462.55
             122.38,481.23 152.35,498.06 181.00,506.98
             190.24,509.85 209.43,517.89 213.43,504.00
             214.09,501.73 214.00,498.40 214.00,496.00
             214.00,496.00 214.00,442.00 214.00,442.00
             213.99,436.48 214.10,431.44 208.90,428.01
             204.72,425.24 196.99,426.00 192.00,426.00
             180.44,426.00 174.00,426.83 163.00,421.68
             147.24,414.30 128.35,389.80 119.00,375.00 Z
           M 320.00,487.00
           C 320.00,487.00 320.00,424.00 320.00,424.00
             320.00,424.00 320.91,412.00 320.91,412.00
             320.91,412.00 316.00,375.00 316.00,375.00
             325.26,372.89 336.47,367.52 345.00,363.25
             382.68,344.36 416.38,309.34 424.80,267.00
             425.82,261.90 426.94,255.15 427.00,250.00
             427.25,228.50 422.62,209.15 412.74,190.00
             410.00,184.68 406.94,179.81 403.37,175.00
             401.59,172.60 397.38,167.61 396.67,165.00
             395.96,162.35 397.43,157.79 398.00,155.00
             398.00,155.00 399.49,141.00 399.49,141.00
             400.36,127.23 395.29,110.95 388.69,99.00
             385.98,94.09 381.61,87.35 376.00,85.65
             371.43,84.27 366.24,86.53 362.00,88.20
             351.35,92.42 341.17,98.03 332.00,104.89
             328.67,107.39 321.85,113.97 318.00,114.22
             318.00,114.22 299.00,109.80 299.00,109.80
             288.22,107.61 269.85,105.13 259.00,105.00
             246.69,104.86 227.14,106.97 215.00,109.40
             211.16,110.17 195.27,114.59 193.00,114.11
             189.99,113.47 182.91,107.08 180.00,104.89
             171.12,98.24 161.29,92.77 151.00,88.60
             146.98,86.98 141.36,84.52 137.00,85.41
             129.87,86.86 124.81,95.99 121.76,102.00
             115.66,114.02 112.10,127.44 112.59,141.00
             112.59,141.00 115.52,164.00 115.52,164.00
             115.07,167.42 110.05,173.04 107.88,176.00
             103.23,182.35 99.05,189.79 95.86,197.00
             81.69,229.06 80.81,265.54 97.32,297.00
             111.35,323.74 132.90,344.63 159.00,359.57
             165.42,363.25 176.07,368.31 183.00,370.94
             185.53,371.90 191.23,372.99 191.48,376.22
             191.74,379.59 188.03,382.83 185.00,383.53
             180.63,384.55 170.08,381.74 166.00,379.73
             166.00,379.73 135.00,358.69 135.00,358.69
             119.66,348.81 99.43,341.21 81.00,341.00
             74.07,340.93 65.69,341.35 64.23,350.00
             63.86,352.18 64.13,354.99 65.17,356.96
             68.46,363.15 74.63,362.25 79.00,364.45
             82.86,366.40 87.77,371.63 90.54,375.00
             111.52,400.49 128.25,434.43 162.00,445.25
             173.51,448.95 180.24,448.00 192.00,448.00
             192.00,448.00 192.00,487.00 192.00,487.00
             164.46,477.82 140.38,466.61 117.00,449.11
             67.52,412.05 33.56,355.21 24.73,294.00
             23.45,285.12 22.01,274.92 22.00,266.00
             22.00,266.00 22.00,247.00 22.00,247.00
             22.00,247.00 22.91,235.00 22.91,235.00
             25.06,205.54 33.32,176.54 46.26,150.00
             77.27,86.39 139.02,40.48 208.00,26.60
             218.18,24.55 234.78,22.12 245.00,22.00
             288.63,21.49 320.06,26.83 360.00,45.31
             375.38,52.43 393.99,65.06 407.00,75.92
             495.22,149.57 514.46,276.85 459.14,376.00
             428.21,431.43 379.40,467.20 320.00,487.00 Z" />
</svg>
