<?xml version="1.0" encoding="utf-8"?>
<!-- Generator: Adobe Illustrator 24.2.1, SVG Export Plug-In . SVG Version: 6.00 Build 0)  -->
<svg version="1.1" id="Layer_1" xmlns="http://www.w3.org/2000/svg" xmlns:xlink="http://www.w3.org/1999/xlink" x="0px" y="0px"
	 viewBox="0 0 512 512" style="enable-background:new 0 0 512 512;" xml:space="preserve">
<style type="text/css">
	.st0{fill:none;stroke:#000000;}
	.st1{font-family:'MyriadPro-Regular';}
	.st2{font-size:12px;}
</style>
<path id="Selection__x23_1" class="st0" d="M119,375l15,10.6l14,9.7c5.2,3.3,13.1,7.2,19,8.8c16.4,4.4,37.5,2,44.3-16.1
	c1.8-4.9,2.7-8.8,2.7-14c0.1-4.8,0.6-10.9-2.5-14.9c-3.6-4.5-10.3-5.3-15.5-7.2c-10-3.7-19.8-7.9-29-13.2
	c-27.1-15.6-49.5-39.7-57.1-70.7c-6.1-24.8-1.6-50.2,11.5-72c3.5-5.8,6.6-9.9,11-15c2.9-3.4,6.5-6.6,7.8-11c1.4-4.7-0.9-8.7-2.5-13
	c-1.9-5.5-3.4-11.2-3.7-17c-0.3-7.1,1.9-16.6,4.9-23c1.2-2.5,2.9-6.2,6.2-6.1c1.9,0.1,7,2.8,8.9,3.8c7.1,3.7,14.2,8.8,20,14.3
	c3.7,3.5,7.8,8.9,13,9.7c5.3,0.9,18.9-4.3,25-5.9c12.7-3.2,32.9-6,46-5.9c11.5,0.1,30.7,3.1,42,5.9l22,6c7.5,0.4,11-5.1,16-9.9
	c5.4-5.2,12.4-10.1,19-13.7c2.2-1.2,8.4-4.7,10.8-4.3c2.8,0.5,4.7,4.6,5.7,7c2.7,6.4,4.7,15.1,4.4,22c-0.2,5-2,12.3-3.6,17
	c-1.5,4.4-3.9,8.2-2.5,13c1.3,4.4,4.9,7.6,7.7,11c3.7,4.4,8,10.1,11,15c14.3,23.9,18,50.3,10,77c-9.8,32.8-37.6,57.3-67.6,71.7
	c-7.8,3.8-19.7,8.1-28,10.5c-5,1.5-10.8,2-14,6.8c-4.1,6.2-0.3,11.9,1.9,17.9c3.1,8.2,5,17.3,5.1,26v90c0,2.4-0.1,5.7,0.6,8
	c3.8,13.3,20.5,6.4,29.4,3.9c24.6-7.1,53.3-22,74-37c49-35.6,83.8-84.6,100.4-142.9c4.3-15,9.4-39.6,9.6-55c0.3-22.2,0.5-40-3.4-62
	c-10.1-56.2-39.2-107.6-81.6-145.8C350.2-4.2,236.9-20,144,25.3c-27.7,13.5-50.3,31-72,52.7c-17.9,17.9-37.1,44.9-47.7,68
	C11.6,173.8,0.1,211.3,0,242v31c0.2,18,6.6,46.8,12.3,64C29,387,57.6,429.5,99,462.5c23.4,18.7,53.4,35.5,82,44.4
	c9.2,2.9,28.4,10.9,32.4-3c0.7-2.3,0.6-5.6,0.6-8v-54c0-5.5,0.1-10.6-5.1-14c-4.2-2.8-11.9-2-16.9-2c-11.6,0-18,0.8-29-4.3
	C147.2,414.3,128.4,389.8,119,375z M320,487v-63l0.9-12l-4.9-37c9.3-2.1,20.5-7.5,29-11.8c37.7-18.9,71.4-53.9,79.8-96.2
	c1-5.1,2.1-11.9,2.2-17c0.2-21.5-4.4-40.9-14.3-60c-2.7-5.3-5.8-10.2-9.4-15c-1.8-2.4-6-7.4-6.7-10c-0.7-2.6,0.8-7.2,1.3-10l1.5-14
	c0.9-13.8-4.2-30.1-10.8-42c-2.7-4.9-7.1-11.7-12.7-13.3c-4.6-1.4-9.8,0.9-14,2.5c-10.6,4.2-20.8,9.8-30,16.7
	c-3.3,2.5-10.1,9.1-14,9.3l-19-4.4c-10.8-2.2-29.1-4.7-40-4.8c-12.3-0.1-31.9,2-44,4.4c-3.8,0.8-19.7,5.2-22,4.7
	c-3-0.6-10.1-7-13-9.2c-8.9-6.7-18.7-12.1-29-16.3c-4-1.6-9.6-4.1-14-3.2c-7.1,1.4-12.2,10.6-15.2,16.6c-6.1,12-9.7,25.4-9.2,39
	l2.9,23c-0.4,3.4-5.5,9-7.6,12c-4.6,6.4-8.8,13.8-12,21c-14.2,32.1-15.1,68.5,1.5,100c14,26.7,35.6,47.6,61.7,62.6
	c6.4,3.7,17.1,8.7,24,11.4c2.5,1,8.2,2,8.5,5.3c0.3,3.4-3.4,6.6-6.5,7.3c-4.4,1-14.9-1.8-19-3.8l-31-21c-15.3-9.9-35.6-17.5-54-17.7
	c-6.9-0.1-15.3,0.4-16.8,9c-0.4,2.2-0.1,5,0.9,7c3.3,6.2,9.5,5.3,13.8,7.5c3.9,1.9,8.8,7.2,11.5,10.5c21,25.5,37.7,59.4,71.5,70.2
	c11.5,3.7,18.2,2.8,30,2.8v39c-27.5-9.2-51.6-20.4-75-37.9C67.5,412,33.6,355.2,24.7,294c-1.3-8.9-2.7-19.1-2.7-28v-19l0.9-12
	c2.1-29.5,10.4-58.5,23.3-85C77.3,86.4,139,40.5,208,26.6c10.2-2.1,26.8-4.5,37-4.6c43.6-0.5,75.1,4.8,115,23.3
	c15.4,7.1,34,19.7,47,30.6c88.2,73.7,107.5,200.9,52.1,300.1C428.2,431.4,379.4,467.2,320,487z"/>
<text transform="matrix(1 0 0 1 46 29)" class="st1 st2">Lorem ipsum</text>
</svg>
