<?xml version="1.0" encoding="UTF-8" standalone="no"?>
<!DOCTYPE svg PUBLIC "-//W3C//DTD SVG 20010904//EN"
              "http://www.w3.org/TR/2001/REC-SVG-20010904/DTD/svg10.dtd">

<svg xmlns="http://www.w3.org/2000/svg"
     width="1.68889in" height="1.44444in"
     viewBox="0 0 152 130">
  <path id="Selection"
        fill="none" stroke="black" stroke-width="1"
        d="M 6.02,0.74
           C 3.69,2.02 2.52,2.52 1.17,5.04
             -0.80,8.75 0.00,24.91 0.00,30.00
             0.00,30.00 0.00,115.00 0.00,115.00
             0.00,117.87 -0.21,121.37 1.17,123.96
             5.17,131.45 20.63,129.00 28.00,129.00
             28.00,129.00 115.00,129.00 115.00,129.00
             117.35,129.00 120.81,129.13 122.96,128.26
             131.25,124.91 129.00,109.45 129.00,102.00
             129.00,102.00 129.00,15.00 129.00,15.00
             128.98,2.54 126.30,0.02 114.00,0.00
             114.00,0.00 42.00,0.00 42.00,0.00
             34.38,0.00 11.96,-0.71 6.02,0.74 Z
           M 26.00,19.43
           C 29.63,18.91 32.73,18.75 35.66,21.43
             41.03,26.34 40.04,36.92 31.00,38.97
             19.45,41.58 11.99,25.01 26.00,19.43 Z
           M 109.00,109.00
           C 109.00,109.00 91.00,109.00 91.00,109.00
             91.00,109.00 91.00,80.00 91.00,80.00
             90.97,74.44 90.39,67.47 84.90,64.45
             78.62,61.00 71.40,65.62 69.57,72.00
             68.77,74.80 69.00,81.77 69.00,85.00
             69.00,85.00 69.00,109.00 69.00,109.00
             69.00,109.00 51.00,109.00 51.00,109.00
             51.00,109.00 51.00,49.00 51.00,49.00
             51.00,49.00 68.00,49.00 68.00,49.00
             68.00,49.00 68.00,57.00 68.00,57.00
             74.97,50.99 75.97,48.23 86.00,47.75
             88.30,47.64 91.75,47.85 94.00,48.32
             112.80,52.32 109.00,81.53 109.00,96.00
             109.00,96.00 109.00,109.00 109.00,109.00 Z
           M 38.00,49.00
           C 38.00,49.00 38.00,109.00 38.00,109.00
             38.00,109.00 20.00,109.00 20.00,109.00
             20.00,109.00 20.00,49.00 20.00,49.00
             20.00,49.00 38.00,49.00 38.00,49.00 Z" />
</svg>
